<svg id="Capa_1" enable-background="new 0 0 511.996 511.996" height="512" viewBox="0 0 511.996 511.996" width="512" xmlns="http://www.w3.org/2000/svg"><g><g><path d="m434.35 312.516-93.764-130.59c11.536-4.842 19.659-16.252 19.659-29.525 0-15.207-10.664-27.961-24.964-31.077l40.609-83.626c1.909-3.932 1.117-8.331-1.589-11.267l.003-.007c-13.07-14.165-31.527-23.319-51.971-25.775-19.186-2.306-38.477 1.591-52.936 10.686-4.07 2.561-5.66 7.571-4.062 11.91 3.172 8.641-.938 18.326-9.356 22.048-6.852 3.031-14.87 1.366-19.95-4.14l-15.56-16.864c-10.951-11.868-25.847-19.114-41.945-20.401-16.094-1.283-31.956 3.499-44.654 13.475-3.714 2.918-4.88 8.037-2.796 12.275l45.071 91.679c-13.984 3.425-24.394 16.058-24.394 31.083 0 13.274 8.123 24.684 19.659 29.525l-93.765 130.59c-15.471 21.547-23.649 46.958-23.649 73.485 0 69.474 56.521 125.995 125.995 125.995h31.006c5.523 0 10-4.477 10-10s-4.477-10-10-10h-31.006c-58.446 0-105.995-47.549-105.995-105.995 0-22.316 6.879-43.693 19.895-61.82l100.36-139.776h71.338c-11.259 22.967-12.166 54.308-1.984 77.489.016.035.031.071.047.105l6.178 13.636c4.997 11.028 15.979 17.601 27.423 17.6 4.011 0 8.081-.808 11.966-2.515 7.396-3.249 13.061-9.193 15.951-16.737 2.889-7.544 2.645-15.751-.69-23.11l-5.959-13.153c-2.976-6.841-2.356-20.928 1.214-27.451l7.173-13.102 91.196 127.012c13.016 18.127 19.895 39.504 19.895 61.82 0 58.446-47.549 105.995-105.995 105.995h-31.006c-5.523 0-10 4.477-10 10s4.477 10 10 10h31.006c69.474 0 125.995-56.521 125.995-125.995 0-26.524-8.178-51.934-23.649-73.482zm-228.58-274.663 15.56 16.864c10.883 11.794 28.058 15.36 42.737 8.869 15.249-6.744 23.896-22.62 22.095-38.554 19.826-8.771 48.854-6.707 68.631 10.326l-41.295 85.039h-115.52l-45.052-91.64c17.286-9.048 39.218-5.671 52.844 9.096zm-22.014 102.543h144.484c6.619 0 12.004 5.385 12.004 12.004 0 6.62-5.385 12.005-12.004 12.005h-.263c-.003 0-.005 0-.007 0h-144.214c-6.619 0-12.004-5.385-12.004-12.005 0-6.619 5.385-12.004 12.004-12.004zm116.473 105.413c.016.035.031.071.047.105l5.987 13.215c1.111 2.453 1.193 5.188.23 7.703s-2.851 4.496-5.316 5.579c-4.989 2.191-10.879-.063-13.128-5.028l-6.153-13.582c-8.006-18.28-6.824-45.24 2.754-62.738l3.645-6.658h22.801l-8.903 16.262c-6.554 11.973-7.453 32.645-1.964 45.142z"/><circle cx="255.998" cy="501.996" r="10"/></g></g></svg>