<svg id="Capa_1" enable-background="new 0 0 512 512" height="512" viewBox="0 0 512 512" width="512" xmlns="http://www.w3.org/2000/svg"><g><path d="m454 226.869c4.414 0 8.688.86 12.705 2.557 4.631 1.956 9.936 1.461 14.126-1.317 4.19-2.779 6.709-7.473 6.709-12.501v-139.467c0-8.284-6.716-15-15-15h-125.841c-.827-33.855-28.625-61.141-62.676-61.141s-61.849 27.286-62.676 61.141h-115.652c-8.284 0-15 6.716-15 15v120.826c-1.175-.065-2.355-.098-3.541-.098-34.57 0-62.695 28.125-62.695 62.695s28.125 62.695 62.695 62.695c1.186 0 2.366-.033 3.541-.098v120.826c0 8.284 6.716 15 15 15h116.232c4.24 30.476 30.471 54.013 62.096 54.013s57.855-23.538 62.096-54.013h126.422c8.284 0 15-6.716 15-15v-139.466c0-5.028-2.52-9.722-6.709-12.501-4.19-2.778-9.495-3.273-14.126-1.317-4.017 1.696-8.291 2.556-12.705 2.556-18.028 0-32.695-14.667-32.695-32.695s14.666-32.695 32.694-32.695zm0 95.39c1.186 0 2.366-.033 3.541-.098v105.826h-126.252c-4.321 0-8.433 1.864-11.281 5.114s-4.156 7.571-3.589 11.855c.199 1.501.299 2.964.299 4.35 0 18.028-14.667 32.695-32.695 32.695s-32.695-14.667-32.695-32.695c0-1.386.101-2.849.299-4.35.567-4.284-.741-8.604-3.589-11.855-2.848-3.25-6.96-5.114-11.281-5.114h-116.062v-124.466c0-5.028-2.519-9.722-6.709-12.501-4.19-2.778-9.495-3.273-14.126-1.317-4.017 1.696-8.291 2.556-12.705 2.556-18.028 0-32.695-14.667-32.695-32.695s14.667-32.695 32.695-32.695c4.414 0 8.688.86 12.705 2.557 4.631 1.956 9.936 1.461 14.126-1.317 4.19-2.779 6.709-7.473 6.709-12.501v-124.467h117.568c4.726 0 9.175-2.227 12.007-6.009 2.833-3.783 3.717-8.679 2.387-13.213-.881-3.004-1.328-6.107-1.328-9.224 0-18.028 14.667-32.695 32.695-32.695s32.695 14.667 32.695 32.695c0 3.117-.447 6.22-1.328 9.224-1.33 4.534-.446 9.43 2.387 13.213 2.832 3.783 7.281 6.009 12.007 6.009h127.758v105.826c-1.175-.065-2.355-.098-3.541-.098-34.57 0-62.695 28.125-62.695 62.695s28.123 62.695 62.693 62.695z"/><path d="m363.52 184.083c-7.917-2.432-16.31 2.017-18.742 9.937l-25.228 82.161-21.646-52.871c-2.31-5.642-7.799-9.317-13.88-9.317-.074 0-.149 0-.223.001-6.169.091-11.654 3.951-13.822 9.728l-19.523 52.021-27.294-82.055c-2.614-7.86-11.106-12.114-18.968-9.499-7.861 2.615-12.114 11.107-9.499 18.968l40.676 122.282c2.006 6.031 7.595 10.143 13.949 10.263 6.372.099 12.095-3.777 14.328-9.727l20.982-55.909 23.058 56.321c2.315 5.654 7.813 9.317 13.878 9.317.227 0 .456-.005.684-.016 6.332-.287 11.799-4.523 13.66-10.582l37.547-122.282c2.431-7.918-2.018-16.309-9.937-18.741z"/></g></svg>