<svg id="Capa_1" enable-background="new 0 0 510 510" height="512" viewBox="0 0 510 510" width="512" xmlns="http://www.w3.org/2000/svg"><g><path d="m75 195c24.813 0 45-20.188 45-45 0-6.973-1.595-13.58-4.438-19.479l50.42-51.165c7.841 6.633 17.968 10.644 29.018 10.644 12.067 0 23.031-4.783 31.12-12.543l45.862 44.33c-1.286 4.18-1.982 8.617-1.982 13.213 0 24.813 20.186 45 45 45 24.459 0 44.408-19.618 44.974-43.943l43.35-29.129c8.138 8.074 19.333 13.072 31.676 13.072 24.814 0 45-20.188 45-45s-20.186-45-45-45-45 20.188-45 45c0 1.546.079 3.074.231 4.58l-40.306 27.084c-8.257-10.158-20.843-16.664-34.925-16.664-9.212 0-17.782 2.787-24.923 7.555l-50.263-48.584c.116-1.31.186-2.632.186-3.971 0-24.813-20.186-45-45-45-24.813 0-45 20.188-45 45 0 2.463.207 4.879.59 7.236l-56.289 57.121c-5.853-2.791-12.397-4.357-19.301-4.357-24.813 0-45 20.188-45 45s20.188 45 45 45z"/><path d="m465 480v-285h-60v285h-60v-240h-60v240h-60v-330h-60v330h-60v-210h-60v210h-45v30h510v-30z"/></g></svg>